<mxfile host="app.diagrams.net" modified="2022-04-11T21:57:47.675Z" agent="5.0 (Windows)" etag="hLu2U3Qc2nFHbrHeQtit" version="16.0.0" type="github">
  <diagram id="0Wm56PS4R_hyQCiAksq0" name="Page-1">
    <mxGraphModel dx="2076" dy="1128" grid="1" gridSize="10" guides="1" tooltips="1" connect="1" arrows="1" fold="1" page="1" pageScale="1" pageWidth="12000" pageHeight="3000" math="0" shadow="0">
      <root>
        <mxCell id="0" />
        <mxCell id="1" parent="0" />
        <mxCell id="2X8ADFfxfaAZpLk_lXrY-82" value="" style="rounded=1;whiteSpace=wrap;html=1;fillColor=#eeeeee;strokeColor=#36393d;" vertex="1" parent="1">
          <mxGeometry x="590" y="350" width="260" height="100" as="geometry" />
        </mxCell>
        <mxCell id="2X8ADFfxfaAZpLk_lXrY-81" value="" style="rounded=1;whiteSpace=wrap;html=1;fillColor=#eeeeee;strokeColor=#36393d;" vertex="1" parent="1">
          <mxGeometry x="230" y="350" width="260" height="100" as="geometry" />
        </mxCell>
        <mxCell id="2X8ADFfxfaAZpLk_lXrY-113" value="" style="edgeStyle=orthogonalEdgeStyle;rounded=0;orthogonalLoop=1;jettySize=auto;html=1;fontSize=22;strokeWidth=3;" edge="1" parent="1" source="2X8ADFfxfaAZpLk_lXrY-21" target="2X8ADFfxfaAZpLk_lXrY-23">
          <mxGeometry relative="1" as="geometry" />
        </mxCell>
        <mxCell id="2X8ADFfxfaAZpLk_lXrY-21" value="" style="rounded=1;whiteSpace=wrap;html=1;fillColor=#e1d5e7;strokeColor=#9673a6;" vertex="1" parent="1">
          <mxGeometry x="1120" y="360" width="80" height="80" as="geometry" />
        </mxCell>
        <mxCell id="2X8ADFfxfaAZpLk_lXrY-37" value="" style="edgeStyle=orthogonalEdgeStyle;rounded=0;orthogonalLoop=1;jettySize=auto;html=1;strokeWidth=3;exitX=1;exitY=0.5;exitDx=0;exitDy=0;" edge="1" parent="1" source="2X8ADFfxfaAZpLk_lXrY-22" target="2X8ADFfxfaAZpLk_lXrY-24">
          <mxGeometry relative="1" as="geometry">
            <Array as="points">
              <mxPoint x="1480" y="720" />
              <mxPoint x="1480" y="560" />
            </Array>
          </mxGeometry>
        </mxCell>
        <mxCell id="2X8ADFfxfaAZpLk_lXrY-36" value="" style="edgeStyle=orthogonalEdgeStyle;rounded=0;orthogonalLoop=1;jettySize=auto;html=1;strokeWidth=3;" edge="1" parent="1" source="2X8ADFfxfaAZpLk_lXrY-23" target="2X8ADFfxfaAZpLk_lXrY-24">
          <mxGeometry relative="1" as="geometry">
            <Array as="points">
              <mxPoint x="1480" y="400" />
              <mxPoint x="1480" y="560" />
            </Array>
          </mxGeometry>
        </mxCell>
        <mxCell id="2X8ADFfxfaAZpLk_lXrY-23" value="" style="rounded=1;whiteSpace=wrap;html=1;fillColor=#fff2cc;strokeColor=#d6b656;" vertex="1" parent="1">
          <mxGeometry x="1280" y="360" width="160" height="80" as="geometry" />
        </mxCell>
        <mxCell id="2X8ADFfxfaAZpLk_lXrY-24" value="" style="rounded=1;whiteSpace=wrap;html=1;fillColor=#f8cecc;strokeColor=#b85450;" vertex="1" parent="1">
          <mxGeometry x="1520" y="520" width="160" height="80" as="geometry" />
        </mxCell>
        <mxCell id="2X8ADFfxfaAZpLk_lXrY-50" value="" style="edgeStyle=orthogonalEdgeStyle;rounded=0;orthogonalLoop=1;jettySize=auto;html=1;strokeWidth=3;" edge="1" parent="1" source="2X8ADFfxfaAZpLk_lXrY-51" target="2X8ADFfxfaAZpLk_lXrY-53">
          <mxGeometry relative="1" as="geometry" />
        </mxCell>
        <mxCell id="2X8ADFfxfaAZpLk_lXrY-51" value="" style="rounded=1;whiteSpace=wrap;html=1;" vertex="1" parent="1">
          <mxGeometry x="240" y="360" width="80" height="80" as="geometry" />
        </mxCell>
        <mxCell id="2X8ADFfxfaAZpLk_lXrY-52" value="" style="edgeStyle=orthogonalEdgeStyle;rounded=0;orthogonalLoop=1;jettySize=auto;html=1;strokeWidth=3;" edge="1" parent="1" source="2X8ADFfxfaAZpLk_lXrY-53" target="2X8ADFfxfaAZpLk_lXrY-57">
          <mxGeometry relative="1" as="geometry" />
        </mxCell>
        <mxCell id="2X8ADFfxfaAZpLk_lXrY-53" value="" style="rounded=1;whiteSpace=wrap;html=1;" vertex="1" parent="1">
          <mxGeometry x="400" y="360" width="80" height="80" as="geometry" />
        </mxCell>
        <mxCell id="2X8ADFfxfaAZpLk_lXrY-54" value="" style="edgeStyle=orthogonalEdgeStyle;rounded=0;orthogonalLoop=1;jettySize=auto;html=1;strokeWidth=3;" edge="1" parent="1" source="2X8ADFfxfaAZpLk_lXrY-55" target="2X8ADFfxfaAZpLk_lXrY-51">
          <mxGeometry relative="1" as="geometry" />
        </mxCell>
        <mxCell id="2X8ADFfxfaAZpLk_lXrY-55" value="&lt;font style=&quot;font-size: 30px&quot;&gt;Z&lt;sub&gt;x&lt;/sub&gt;&lt;sup&gt;(1)&lt;/sup&gt;&lt;/font&gt;" style="rounded=1;whiteSpace=wrap;html=1;fillColor=#dae8fc;strokeColor=#6c8ebf;" vertex="1" parent="1">
          <mxGeometry x="240" y="520" width="80" height="80" as="geometry" />
        </mxCell>
        <mxCell id="2X8ADFfxfaAZpLk_lXrY-56" value="" style="edgeStyle=orthogonalEdgeStyle;rounded=0;orthogonalLoop=1;jettySize=auto;html=1;strokeWidth=3;" edge="1" parent="1" source="2X8ADFfxfaAZpLk_lXrY-57" target="2X8ADFfxfaAZpLk_lXrY-59">
          <mxGeometry relative="1" as="geometry" />
        </mxCell>
        <mxCell id="2X8ADFfxfaAZpLk_lXrY-57" value="" style="rounded=1;whiteSpace=wrap;html=1;" vertex="1" parent="1">
          <mxGeometry x="600" y="360" width="80" height="80" as="geometry" />
        </mxCell>
        <mxCell id="2X8ADFfxfaAZpLk_lXrY-58" value="" style="edgeStyle=orthogonalEdgeStyle;rounded=0;orthogonalLoop=1;jettySize=auto;html=1;strokeWidth=3;" edge="1" parent="1" source="2X8ADFfxfaAZpLk_lXrY-59" target="2X8ADFfxfaAZpLk_lXrY-62">
          <mxGeometry relative="1" as="geometry" />
        </mxCell>
        <mxCell id="2X8ADFfxfaAZpLk_lXrY-59" value="" style="rounded=1;whiteSpace=wrap;html=1;" vertex="1" parent="1">
          <mxGeometry x="760" y="360" width="80" height="80" as="geometry" />
        </mxCell>
        <mxCell id="2X8ADFfxfaAZpLk_lXrY-60" value="" style="edgeStyle=orthogonalEdgeStyle;rounded=0;orthogonalLoop=1;jettySize=auto;html=1;strokeWidth=3;" edge="1" parent="1" source="2X8ADFfxfaAZpLk_lXrY-61" target="2X8ADFfxfaAZpLk_lXrY-57">
          <mxGeometry relative="1" as="geometry" />
        </mxCell>
        <mxCell id="2X8ADFfxfaAZpLk_lXrY-61" value="&lt;font style=&quot;font-size: 30px&quot;&gt;Z&lt;sub&gt;x&lt;/sub&gt;&lt;sup&gt;(2)&lt;/sup&gt;&lt;/font&gt;" style="rounded=1;whiteSpace=wrap;html=1;fillColor=#dae8fc;strokeColor=#6c8ebf;" vertex="1" parent="1">
          <mxGeometry x="600" y="520" width="80" height="80" as="geometry" />
        </mxCell>
        <mxCell id="2X8ADFfxfaAZpLk_lXrY-68" value="" style="edgeStyle=orthogonalEdgeStyle;rounded=0;orthogonalLoop=1;jettySize=auto;html=1;strokeWidth=3;" edge="1" parent="1" source="2X8ADFfxfaAZpLk_lXrY-62" target="2X8ADFfxfaAZpLk_lXrY-21">
          <mxGeometry relative="1" as="geometry" />
        </mxCell>
        <mxCell id="2X8ADFfxfaAZpLk_lXrY-62" value="" style="rounded=1;whiteSpace=wrap;html=1;" vertex="1" parent="1">
          <mxGeometry x="960" y="360" width="80" height="80" as="geometry" />
        </mxCell>
        <mxCell id="2X8ADFfxfaAZpLk_lXrY-73" value="" style="rounded=1;whiteSpace=wrap;html=1;fillColor=#dae8fc;strokeColor=#6c8ebf;" vertex="1" parent="1">
          <mxGeometry x="240" y="360" width="80" height="80" as="geometry" />
        </mxCell>
        <mxCell id="2X8ADFfxfaAZpLk_lXrY-74" value="" style="rounded=1;whiteSpace=wrap;html=1;fillColor=#dae8fc;strokeColor=#6c8ebf;" vertex="1" parent="1">
          <mxGeometry x="400" y="360" width="80" height="80" as="geometry" />
        </mxCell>
        <mxCell id="2X8ADFfxfaAZpLk_lXrY-75" value="" style="rounded=1;whiteSpace=wrap;html=1;fillColor=#dae8fc;strokeColor=#6c8ebf;" vertex="1" parent="1">
          <mxGeometry x="600" y="360" width="80" height="80" as="geometry" />
        </mxCell>
        <mxCell id="2X8ADFfxfaAZpLk_lXrY-76" value="" style="rounded=1;whiteSpace=wrap;html=1;fillColor=#dae8fc;strokeColor=#6c8ebf;" vertex="1" parent="1">
          <mxGeometry x="760" y="360" width="80" height="80" as="geometry" />
        </mxCell>
        <mxCell id="2X8ADFfxfaAZpLk_lXrY-77" value="&lt;font style=&quot;font-size: 30px&quot;&gt;Z&lt;sub&gt;o&lt;/sub&gt;&lt;/font&gt;" style="rounded=1;whiteSpace=wrap;html=1;fillColor=#dae8fc;strokeColor=#6c8ebf;" vertex="1" parent="1">
          <mxGeometry x="960" y="360" width="80" height="80" as="geometry" />
        </mxCell>
        <mxCell id="2X8ADFfxfaAZpLk_lXrY-86" value="" style="rounded=1;whiteSpace=wrap;html=1;fillColor=#eeeeee;strokeColor=#36393d;" vertex="1" parent="1">
          <mxGeometry x="670" y="670" width="260" height="100" as="geometry" />
        </mxCell>
        <mxCell id="2X8ADFfxfaAZpLk_lXrY-87" value="" style="rounded=1;whiteSpace=wrap;html=1;fillColor=#eeeeee;strokeColor=#36393d;" vertex="1" parent="1">
          <mxGeometry x="310" y="670" width="260" height="100" as="geometry" />
        </mxCell>
        <mxCell id="2X8ADFfxfaAZpLk_lXrY-90" value="" style="edgeStyle=orthogonalEdgeStyle;rounded=0;orthogonalLoop=1;jettySize=auto;html=1;strokeWidth=3;" edge="1" parent="1" source="2X8ADFfxfaAZpLk_lXrY-91" target="2X8ADFfxfaAZpLk_lXrY-93">
          <mxGeometry relative="1" as="geometry" />
        </mxCell>
        <mxCell id="2X8ADFfxfaAZpLk_lXrY-91" value="" style="rounded=1;whiteSpace=wrap;html=1;fillColor=#d5e8d4;strokeColor=#82b366;" vertex="1" parent="1">
          <mxGeometry x="320" y="680" width="80" height="80" as="geometry" />
        </mxCell>
        <mxCell id="2X8ADFfxfaAZpLk_lXrY-92" value="" style="edgeStyle=orthogonalEdgeStyle;rounded=0;orthogonalLoop=1;jettySize=auto;html=1;strokeWidth=3;" edge="1" parent="1" source="2X8ADFfxfaAZpLk_lXrY-93" target="2X8ADFfxfaAZpLk_lXrY-97">
          <mxGeometry relative="1" as="geometry" />
        </mxCell>
        <mxCell id="2X8ADFfxfaAZpLk_lXrY-93" value="" style="rounded=1;whiteSpace=wrap;html=1;fillColor=#d5e8d4;strokeColor=#82b366;" vertex="1" parent="1">
          <mxGeometry x="480" y="680" width="80" height="80" as="geometry" />
        </mxCell>
        <mxCell id="2X8ADFfxfaAZpLk_lXrY-94" value="" style="edgeStyle=orthogonalEdgeStyle;rounded=0;orthogonalLoop=1;jettySize=auto;html=1;strokeWidth=3;" edge="1" parent="1" source="2X8ADFfxfaAZpLk_lXrY-95" target="2X8ADFfxfaAZpLk_lXrY-91">
          <mxGeometry relative="1" as="geometry" />
        </mxCell>
        <mxCell id="2X8ADFfxfaAZpLk_lXrY-95" value="" style="rounded=1;whiteSpace=wrap;html=1;" vertex="1" parent="1">
          <mxGeometry x="320" y="840" width="80" height="80" as="geometry" />
        </mxCell>
        <mxCell id="2X8ADFfxfaAZpLk_lXrY-96" value="" style="edgeStyle=orthogonalEdgeStyle;rounded=0;orthogonalLoop=1;jettySize=auto;html=1;strokeWidth=3;" edge="1" parent="1" source="2X8ADFfxfaAZpLk_lXrY-97" target="2X8ADFfxfaAZpLk_lXrY-99">
          <mxGeometry relative="1" as="geometry" />
        </mxCell>
        <mxCell id="2X8ADFfxfaAZpLk_lXrY-97" value="" style="rounded=1;whiteSpace=wrap;html=1;fillColor=#d5e8d4;strokeColor=#82b366;" vertex="1" parent="1">
          <mxGeometry x="680" y="680" width="80" height="80" as="geometry" />
        </mxCell>
        <mxCell id="2X8ADFfxfaAZpLk_lXrY-98" value="" style="edgeStyle=orthogonalEdgeStyle;rounded=0;orthogonalLoop=1;jettySize=auto;html=1;strokeWidth=3;" edge="1" parent="1" source="2X8ADFfxfaAZpLk_lXrY-99" target="2X8ADFfxfaAZpLk_lXrY-103">
          <mxGeometry relative="1" as="geometry" />
        </mxCell>
        <mxCell id="2X8ADFfxfaAZpLk_lXrY-99" value="" style="rounded=1;whiteSpace=wrap;html=1;fillColor=#d5e8d4;strokeColor=#82b366;" vertex="1" parent="1">
          <mxGeometry x="840" y="680" width="80" height="80" as="geometry" />
        </mxCell>
        <mxCell id="2X8ADFfxfaAZpLk_lXrY-100" value="" style="edgeStyle=orthogonalEdgeStyle;rounded=0;orthogonalLoop=1;jettySize=auto;html=1;strokeWidth=3;" edge="1" parent="1" source="2X8ADFfxfaAZpLk_lXrY-101" target="2X8ADFfxfaAZpLk_lXrY-97">
          <mxGeometry relative="1" as="geometry" />
        </mxCell>
        <mxCell id="2X8ADFfxfaAZpLk_lXrY-101" value="" style="rounded=1;whiteSpace=wrap;html=1;" vertex="1" parent="1">
          <mxGeometry x="680" y="840" width="80" height="80" as="geometry" />
        </mxCell>
        <mxCell id="2X8ADFfxfaAZpLk_lXrY-102" value="" style="edgeStyle=orthogonalEdgeStyle;rounded=0;orthogonalLoop=1;jettySize=auto;html=1;strokeWidth=3;startArrow=none;exitX=1;exitY=0.5;exitDx=0;exitDy=0;" edge="1" parent="1" source="2X8ADFfxfaAZpLk_lXrY-22">
          <mxGeometry relative="1" as="geometry">
            <mxPoint x="1440" y="720" as="targetPoint" />
          </mxGeometry>
        </mxCell>
        <mxCell id="2X8ADFfxfaAZpLk_lXrY-103" value="" style="rounded=1;whiteSpace=wrap;html=1;fillColor=#b0e3e6;strokeColor=#0e8088;" vertex="1" parent="1">
          <mxGeometry x="1040" y="680" width="80" height="80" as="geometry" />
        </mxCell>
        <mxCell id="2X8ADFfxfaAZpLk_lXrY-109" value="" style="edgeStyle=orthogonalEdgeStyle;rounded=0;orthogonalLoop=1;jettySize=auto;html=1;fontSize=22;strokeWidth=3;exitX=1;exitY=0.5;exitDx=0;exitDy=0;" edge="1" parent="1" source="2X8ADFfxfaAZpLk_lXrY-105" target="2X8ADFfxfaAZpLk_lXrY-91">
          <mxGeometry relative="1" as="geometry">
            <mxPoint x="210" y="940" as="sourcePoint" />
            <Array as="points" />
          </mxGeometry>
        </mxCell>
        <mxCell id="2X8ADFfxfaAZpLk_lXrY-110" value="" style="edgeStyle=orthogonalEdgeStyle;rounded=0;orthogonalLoop=1;jettySize=auto;html=1;fontSize=22;strokeWidth=3;" edge="1" parent="1" source="2X8ADFfxfaAZpLk_lXrY-105" target="2X8ADFfxfaAZpLk_lXrY-73">
          <mxGeometry relative="1" as="geometry">
            <Array as="points">
              <mxPoint x="160" y="400" />
            </Array>
          </mxGeometry>
        </mxCell>
        <mxCell id="2X8ADFfxfaAZpLk_lXrY-105" value="&lt;font style=&quot;font-size: 30px&quot;&gt;h&lt;sup&gt;(0)&lt;/sup&gt;&lt;/font&gt;" style="rounded=1;whiteSpace=wrap;html=1;fillColor=#ffe6cc;strokeColor=#d79b00;" vertex="1" parent="1">
          <mxGeometry x="120" y="680" width="80" height="80" as="geometry" />
        </mxCell>
        <mxCell id="2X8ADFfxfaAZpLk_lXrY-111" value="" style="edgeStyle=orthogonalEdgeStyle;rounded=0;orthogonalLoop=1;jettySize=auto;html=1;fontSize=22;strokeWidth=3;" edge="1" parent="1" source="2X8ADFfxfaAZpLk_lXrY-106" target="2X8ADFfxfaAZpLk_lXrY-55">
          <mxGeometry relative="1" as="geometry">
            <Array as="points">
              <mxPoint x="280" y="880" />
            </Array>
          </mxGeometry>
        </mxCell>
        <mxCell id="2X8ADFfxfaAZpLk_lXrY-106" value="&lt;font style=&quot;font-size: 30px&quot;&gt;x&lt;sup&gt;(1)&lt;/sup&gt;&lt;/font&gt;" style="rounded=1;whiteSpace=wrap;html=1;fillColor=#ffe6cc;strokeColor=#d79b00;" vertex="1" parent="1">
          <mxGeometry x="320" y="840" width="80" height="80" as="geometry" />
        </mxCell>
        <mxCell id="2X8ADFfxfaAZpLk_lXrY-112" value="" style="edgeStyle=orthogonalEdgeStyle;rounded=0;orthogonalLoop=1;jettySize=auto;html=1;fontSize=22;strokeWidth=3;" edge="1" parent="1" source="2X8ADFfxfaAZpLk_lXrY-107" target="2X8ADFfxfaAZpLk_lXrY-61">
          <mxGeometry relative="1" as="geometry">
            <Array as="points">
              <mxPoint x="640" y="880" />
            </Array>
          </mxGeometry>
        </mxCell>
        <mxCell id="2X8ADFfxfaAZpLk_lXrY-107" value="&lt;font style=&quot;font-size: 30px&quot;&gt;x&lt;sup&gt;(2)&lt;/sup&gt;&lt;/font&gt;" style="rounded=1;whiteSpace=wrap;html=1;fillColor=#ffe6cc;strokeColor=#d79b00;" vertex="1" parent="1">
          <mxGeometry x="680" y="840" width="80" height="80" as="geometry" />
        </mxCell>
        <mxCell id="2X8ADFfxfaAZpLk_lXrY-22" value="" style="rounded=1;whiteSpace=wrap;html=1;fillColor=#fff2cc;strokeColor=#d6b656;" vertex="1" parent="1">
          <mxGeometry x="1280" y="680" width="160" height="80" as="geometry" />
        </mxCell>
        <mxCell id="2X8ADFfxfaAZpLk_lXrY-114" value="" style="edgeStyle=orthogonalEdgeStyle;rounded=0;orthogonalLoop=1;jettySize=auto;html=1;strokeWidth=3;endArrow=none;" edge="1" parent="1" source="2X8ADFfxfaAZpLk_lXrY-103" target="2X8ADFfxfaAZpLk_lXrY-22">
          <mxGeometry relative="1" as="geometry">
            <mxPoint x="1120" y="720" as="sourcePoint" />
            <mxPoint x="1360" y="720" as="targetPoint" />
          </mxGeometry>
        </mxCell>
      </root>
    </mxGraphModel>
  </diagram>
</mxfile>
